{
    "asset" : {
        "generator" : "Khronos glTF Blender I/O v3.3.32",
        "version" : "2.0"
    },
    "scene" : 0,
    "scenes" : [
        {
            "name" : "Scene",
            "nodes" : [
                21
            ]
        }
    ],
    "nodes" : [
        {
            "name" : "Default Ambient Light",
            "translation" : [
                0,
                1,
                0
            ]
        },
        {
            "mesh" : 0,
            "name" : "Backdrop",
            "scale" : [
                3,
                2.8533527851104736,
                3
            ],
            "translation" : [
                -1161.625,
                2496.168701171875,
                -173.56715393066406
            ]
        },
        {
            "mesh" : 1,
            "name" : "Shirtthe",
            "scale" : [
                19.999998092651367,
                19.999998092651367,
                19.999998092651367
            ],
            "translation" : [
                23.59341812133789,
                -388.5908203125,
                -1541.782958984375
            ]
        },
        {
            "children" : [
                2
            ],
            "name" : "PRODUCT ROTATE",
            "translation" : [
                -23.593420028686523,
                267.46136474609375,
                1541.7830810546875
            ]
        },
        {
            "children" : [
                1,
                3
            ],
            "name" : "geo",
            "translation" : [
                0,
                101.76557159423828,
                0
            ]
        },
        {
            "mesh" : 2,
            "name" : "Mesh_2",
            "rotation" : [
                0,
                0.06286051869392395,
                0,
                0.9980223178863525
            ],
            "translation" : [
                -37.000160217285156,
                500,
                0.0001068115234375
            ]
        },
        {
            "mesh" : 2,
            "name" : "Mesh_2.001",
            "rotation" : [
                0,
                -0.1035599410533905,
                0,
                0.9946233034133911
            ],
            "translation" : [
                212.9998779296875,
                433.0125732421875,
                -0.0001373291015625
            ]
        },
        {
            "mesh" : 2,
            "name" : "Mesh_2.002",
            "rotation" : [
                0,
                -0.15697672963142395,
                0,
                0.9876022934913635
            ],
            "translation" : [
                396.0126647949219,
                250.00009155273438,
                -0.0001983642578125
            ]
        },
        {
            "mesh" : 2,
            "name" : "Mesh_2.003",
            "rotation" : [
                0,
                -0.09838636964559555,
                0,
                0.9951483011245728
            ],
            "translation" : [
                462.9999694824219,
                -9.918212890625e-05,
                -6.103515625e-05
            ]
        },
        {
            "mesh" : 2,
            "name" : "Mesh_2.004",
            "rotation" : [
                0,
                -0.17993837594985962,
                0,
                0.9836779236793518
            ],
            "translation" : [
                396.0124816894531,
                -250.0001220703125,
                -0.00011444091796875
            ]
        },
        {
            "mesh" : 2,
            "name" : "Mesh_2.005",
            "rotation" : [
                0,
                0.024479441344738007,
                0,
                0.9997003674507141
            ],
            "translation" : [
                212.99981689453125,
                -433.0126953125,
                -9.1552734375e-05
            ]
        },
        {
            "mesh" : 2,
            "name" : "Mesh_2.006",
            "rotation" : [
                0,
                0.09879586100578308,
                0,
                0.9951077103614807
            ],
            "translation" : [
                -37.000152587890625,
                -500.0000305175781,
                -7.62939453125e-05
            ]
        },
        {
            "mesh" : 2,
            "name" : "Mesh_2.007",
            "rotation" : [
                0,
                -0.13686533272266388,
                0,
                0.9905896782875061
            ],
            "translation" : [
                -287.0001220703125,
                -433.0126953125,
                9.918212890625e-05
            ]
        },
        {
            "mesh" : 2,
            "name" : "Mesh_2.008",
            "rotation" : [
                0,
                0.012728417292237282,
                0,
                0.9999189972877502
            ],
            "translation" : [
                -470.0129089355469,
                -250.00003051757812,
                5.340576171875e-05
            ]
        },
        {
            "mesh" : 2,
            "name" : "Mesh_2.009",
            "rotation" : [
                0,
                -0.17878325283527374,
                0,
                0.983888566493988
            ],
            "translation" : [
                -537,
                -9.1552734375e-05,
                -3.814697265625e-05
            ]
        },
        {
            "mesh" : 2,
            "name" : "Mesh_2.010",
            "rotation" : [
                0,
                0.016133371740579605,
                0,
                0.9998699426651001
            ],
            "translation" : [
                -470.0126647949219,
                249.99993896484375,
                2.288818359375e-05
            ]
        },
        {
            "mesh" : 2,
            "name" : "Mesh_2.011",
            "rotation" : [
                0,
                -0.051267653703689575,
                0,
                0.9986849427223206
            ],
            "translation" : [
                -287.0001220703125,
                433.0126953125,
                0
            ]
        },
        {
            "children" : [
                5,
                6,
                7,
                8,
                9,
                10,
                11,
                12,
                13,
                14,
                15,
                16
            ],
            "name" : "Node_24",
            "rotation" : [
                -0.032054755836725235,
                -0.363833487033844,
                -0.022021610289812088,
                0.9306517839431763
            ],
            "translation" : [
                -2713.112548828125,
                1392.70703125,
                1456.2587890625
            ]
        },
        {
            "mesh" : 2,
            "name" : "Reeded glass",
            "rotation" : [
                -0.032054755836725235,
                -0.363833487033844,
                -0.022021610289812088,
                0.9306517839431763
            ],
            "translation" : [
                -2713.112548828125,
                1392.70703125,
                1456.2587890625
            ]
        },
        {
            "children" : [
                17,
                18
            ],
            "name" : "Lights"
        },
        {
            "children" : [
                0,
                4,
                19
            ],
            "name" : "reededGlass"
        },
        {
            "children" : [
                20
            ],
            "name" : "Node_0",
            "scale" : [
                0.009999999776482582,
                0.009999999776482582,
                0.009999999776482582
            ]
        }
    ],
    "meshes" : [
        {
            "name" : "Mesh_1",
            "primitives" : [
                {
                    "attributes" : {
                        "POSITION" : 0,
                        "NORMAL" : 1,
                        "TEXCOORD_0" : 2
                    },
                    "indices" : 3
                }
            ]
        },
        {
            "name" : "Mesh_0",
            "primitives" : [
                {
                    "attributes" : {
                        "POSITION" : 4,
                        "NORMAL" : 5,
                        "TEXCOORD_0" : 6
                    },
                    "indices" : 7
                }
            ]
        },
        {
            "name" : "Mesh_2",
            "primitives" : [
                {
                    "attributes" : {
                        "POSITION" : 8,
                        "NORMAL" : 9
                    },
                    "indices" : 10
                }
            ]
        }
    ],
    "accessors" : [
        {
            "bufferView" : 0,
            "componentType" : 5126,
            "count" : 60,
            "max" : [
                2355.627685546875,
                1060.4775390625,
                1950.6890869140625
            ],
            "min" : [
                -2355.627685546875,
                -1060.4775390625,
                -1950.6890869140625
            ],
            "type" : "VEC3"
        },
        {
            "bufferView" : 1,
            "componentType" : 5126,
            "count" : 60,
            "type" : "VEC3"
        },
        {
            "bufferView" : 2,
            "componentType" : 5126,
            "count" : 60,
            "type" : "VEC2"
        },
        {
            "bufferView" : 3,
            "componentType" : 5123,
            "count" : 60,
            "type" : "SCALAR"
        },
        {
            "bufferView" : 4,
            "componentType" : 5126,
            "count" : 37032,
            "max" : [
                27.597469329833984,
                55.0400390625,
                13.935165405273438
            ],
            "min" : [
                -27.675762176513672,
                -5.756649971008301,
                -13.047693252563477
            ],
            "type" : "VEC3"
        },
        {
            "bufferView" : 5,
            "componentType" : 5126,
            "count" : 37032,
            "type" : "VEC3"
        },
        {
            "bufferView" : 6,
            "componentType" : 5126,
            "count" : 37032,
            "type" : "VEC2"
        },
        {
            "bufferView" : 7,
            "componentType" : 5123,
            "count" : 37032,
            "type" : "SCALAR"
        },
        {
            "bufferView" : 8,
            "componentType" : 5126,
            "count" : 1044,
            "max" : [
                81.42485046386719,
                471.1179504394531,
                -377.8668518066406
            ],
            "min" : [
                -66.43833923339844,
                -505.9411926269531,
                -525.7300415039062
            ],
            "type" : "VEC3"
        },
        {
            "bufferView" : 9,
            "componentType" : 5126,
            "count" : 1044,
            "type" : "VEC3"
        },
        {
            "bufferView" : 10,
            "componentType" : 5123,
            "count" : 1182,
            "type" : "SCALAR"
        }
    ],
    "bufferViews" : [
        {
            "buffer" : 0,
            "byteLength" : 720,
            "byteOffset" : 0,
            "target" : 34962
        },
        {
            "buffer" : 0,
            "byteLength" : 720,
            "byteOffset" : 720,
            "target" : 34962
        },
        {
            "buffer" : 0,
            "byteLength" : 480,
            "byteOffset" : 1440,
            "target" : 34962
        },
        {
            "buffer" : 0,
            "byteLength" : 120,
            "byteOffset" : 1920,
            "target" : 34963
        },
        {
            "buffer" : 0,
            "byteLength" : 444384,
            "byteOffset" : 2040,
            "target" : 34962
        },
        {
            "buffer" : 0,
            "byteLength" : 444384,
            "byteOffset" : 446424,
            "target" : 34962
        },
        {
            "buffer" : 0,
            "byteLength" : 296256,
            "byteOffset" : 890808,
            "target" : 34962
        },
        {
            "buffer" : 0,
            "byteLength" : 74064,
            "byteOffset" : 1187064,
            "target" : 34963
        },
        {
            "buffer" : 0,
            "byteLength" : 12528,
            "byteOffset" : 1261128,
            "target" : 34962
        },
        {
            "buffer" : 0,
            "byteLength" : 12528,
            "byteOffset" : 1273656,
            "target" : 34962
        },
        {
            "buffer" : 0,
            "byteLength" : 2364,
            "byteOffset" : 1286184,
            "target" : 34963
        }
    ],
    "buffers" : [
        {
            "byteLength" : 1288548,
            "uri" : "data:application/octet-stream;base64,"
        }
    ]
}
